<?xml version="1.0" encoding="UTF-8" standalone="no"?>
<!-- Generator: Adobe Illustrator 18.1.1, SVG Export Plug-In . SVG Version: 6.00 Build 0)  -->

<svg
   xmlns:dc="http://purl.org/dc/elements/1.1/"
   xmlns:cc="http://creativecommons.org/ns#"
   xmlns:rdf="http://www.w3.org/1999/02/22-rdf-syntax-ns#"
   xmlns:svg="http://www.w3.org/2000/svg"
   xmlns="http://www.w3.org/2000/svg"
   xmlns:sodipodi="http://sodipodi.sourceforge.net/DTD/sodipodi-0.dtd"
   xmlns:inkscape="http://www.inkscape.org/namespaces/inkscape"
   version="1.1"
   id="Info_circled"
   x="0px"
   y="0px"
   viewBox="0 0 200 200"
   enable-background="new 0 0 20 20"
   xml:space="preserve"
   inkscape:version="0.92.2 5c3e80d, 2017-08-06"
   sodipodi:docname="info.svg"
   width="200"
   height="200"><metadata
     id="metadata9"><rdf:RDF><cc:Work
         rdf:about=""><dc:format>image/svg+xml</dc:format><dc:type
           rdf:resource="http://purl.org/dc/dcmitype/StillImage" /><dc:title></dc:title></cc:Work></rdf:RDF></metadata><defs
     id="defs7"><inkscape:perspective
       sodipodi:type="inkscape:persp3d"
       inkscape:vp_x="0 : 100 : 1"
       inkscape:vp_y="0 : 1000 : 0"
       inkscape:vp_z="200 : 100 : 1"
       inkscape:persp3d-origin="100 : 66.666667 : 1"
       id="perspective827" /></defs><sodipodi:namedview
     pagecolor="#ffffff"
     bordercolor="#666666"
     borderopacity="1"
     objecttolerance="10"
     gridtolerance="10"
     guidetolerance="10"
     inkscape:pageopacity="0"
     inkscape:pageshadow="2"
     inkscape:window-width="1579"
     inkscape:window-height="880"
     id="namedview5"
     showgrid="false"
     inkscape:zoom="1.4142136"
     inkscape:cx="126.54034"
     inkscape:cy="34.220278"
     inkscape:window-x="0"
     inkscape:window-y="18"
     inkscape:window-maximized="1"
     inkscape:current-layer="Info_circled" /><path
     style="fill:#ffffff;stroke-width:14.92317295;fill-opacity:0.49803922"
     d="m 116.74397,17.707524 c 13.96808,0 18.07195,8.103283 18.07195,17.370573 0,11.565459 -9.25236,22.265374 -25.056,22.265374 -13.221934,0 -19.519513,-6.640812 -19.13151,-17.63919 0,-9.267291 7.745127,-21.996757 26.11556,-21.996757 z"
     id="path831"
     inkscape:connector-curvature="0" /><path
     style="fill:#ffffff;stroke-width:14.92317295;fill-opacity:0.49803922"
     d="m 80.958194,195.05451 c -9.550831,0 -16.519952,-5.80511 -9.849294,-31.24912 l 10.938685,-45.1426 c 1.895243,-7.22282 2.20863,-10.11791 0,-10.11791 -2.850326,0 -15.251482,4.98434 -22.563837,9.90898 l -4.760492,-7.80482 C 77.92879,91.263843 104.61143,79.892385 116.02765,79.892385 c 9.55083,0 11.13269,11.281919 6.3722,28.652495 l -12.53547,47.45569 c -2.22355,8.38682 -1.26847,11.28192 0.95509,11.28192 2.86525,0 12.237,-3.46218 21.45951,-10.72977 l 5.40219,7.25267 c -22.57875,22.56383 -47.187069,31.24912 -56.722976,31.24912 z"
     id="path3-3"
     inkscape:connector-curvature="0" /></svg>